<svg width="1440" height="139" viewBox="0 0 1440 139" fill="none" xmlns="http://www.w3.org/2000/svg">
<mask id="mask0" style="mask-type:alpha" maskUnits="userSpaceOnUse" x="0" y="0" width="1440" height="139">
<rect width="1440" height="138.947" fill="#D9D9D9"/>
</mask>
<g mask="url(#mask0)">
<mask id="maskL1" style="mask-type:alpha" maskUnits="userSpaceOnUse" x="-33" y="30" width="340" height="132">
<path d="M212.842 92.842C245.179 79.7052 289.053 60.421 306.948 52.421L243.79 39.7894L92.8424 30.9473L-32.8418 144L-8.84179 161.684C-6.73653 161.474 12.5056 157.137 72.6319 141.474C147.79 121.895 172.421 109.263 212.842 92.842Z" fill="#D9D9D9"/>
</mask>
<g mask="url(#maskL1)">
<mask id="maskL2" style="mask-type:alpha" maskUnits="userSpaceOnUse" x="-56" y="65" width="451" height="112">
<path d="M102.948 76.5176C54.9482 95.2124 -22.736 150.833 -55.5781 176.307L394.738 170.623C378.948 153.149 337.138 113.528 296.211 94.8334C245.053 71.465 162.948 53.1492 102.948 76.5176Z" fill="#D9D9D9"/>
</mask>
<g mask="url(#maskL2)">
<circle cx="5.68478" cy="67.5788" r="1.89474" fill="#E4C484"/>
<circle cx="5.68478" cy="82.7368" r="1.89474" fill="#E4C484"/>
<circle cx="5.68478" cy="97.8945" r="1.89474" fill="#E4C484"/>
<circle cx="5.68478" cy="113.052" r="1.89474" fill="#E4C484"/>
<circle cx="5.68478" cy="128.21" r="1.89474" fill="#E4C484"/>
<circle cx="1.89571" cy="75.1577" r="1.89474" fill="#E4C484"/>
<circle cx="1.89571" cy="90.3156" r="1.89474" fill="#E4C484"/>
<circle cx="1.89571" cy="105.474" r="1.89474" fill="#E4C484"/>
<circle cx="1.89571" cy="120.632" r="1.89474" fill="#E4C484"/>
<circle cx="1.89571" cy="135.789" r="1.89474" fill="#E4C484"/>
<circle cx="14.5266" cy="67.5788" r="1.89474" fill="#E4C484"/>
<circle cx="14.5266" cy="82.7368" r="1.89474" fill="#E4C484"/>
<circle cx="14.5266" cy="97.8945" r="1.89474" fill="#E4C484"/>
<circle cx="14.5266" cy="113.052" r="1.89474" fill="#E4C484"/>
<circle cx="14.5266" cy="128.21" r="1.89474" fill="#E4C484"/>
<circle cx="10.7375" cy="75.1577" r="1.89474" fill="#E4C484"/>
<circle cx="10.7375" cy="90.3156" r="1.89474" fill="#E4C484"/>
<circle cx="10.7375" cy="105.474" r="1.89474" fill="#E4C484"/>
<circle cx="10.7375" cy="120.632" r="1.89474" fill="#E4C484"/>
<circle cx="10.7375" cy="135.789" r="1.89474" fill="#E4C484"/>
<circle cx="23.3693" cy="67.5788" r="1.89474" fill="#E4C484"/>
<circle cx="23.3693" cy="82.7368" r="1.89474" fill="#E4C484"/>
<circle cx="23.3693" cy="97.8945" r="1.89474" fill="#E4C484"/>
<circle cx="23.3693" cy="113.052" r="1.89474" fill="#E4C484"/>
<circle cx="23.3693" cy="128.21" r="1.89474" fill="#E4C484"/>
<circle cx="19.5793" cy="75.1577" r="1.89474" fill="#E4C484"/>
<circle cx="19.5793" cy="90.3156" r="1.89474" fill="#E4C484"/>
<circle cx="19.5793" cy="105.474" r="1.89474" fill="#E4C484"/>
<circle cx="19.5793" cy="120.632" r="1.89474" fill="#E4C484"/>
<circle cx="19.5793" cy="135.789" r="1.89474" fill="#E4C484"/>
<circle cx="32.2111" cy="67.5788" r="1.89474" fill="#E4C484"/>
<circle cx="32.2111" cy="82.7368" r="1.89474" fill="#E4C484"/>
<circle cx="32.2111" cy="97.8945" r="1.89474" fill="#E4C484"/>
<circle cx="32.2111" cy="113.052" r="1.89474" fill="#E4C484"/>
<circle cx="32.2111" cy="128.21" r="1.89474" fill="#E4C484"/>
<circle cx="28.4221" cy="75.1577" r="1.89474" fill="#E4C484"/>
<circle cx="28.4221" cy="90.3156" r="1.89474" fill="#E4C484"/>
<circle cx="28.4221" cy="105.474" r="1.89474" fill="#E4C484"/>
<circle cx="28.4221" cy="120.632" r="1.89474" fill="#E4C484"/>
<circle cx="28.4221" cy="135.789" r="1.89474" fill="#E4C484"/>
<circle cx="41.0529" cy="67.5788" r="1.89474" fill="#E4C484"/>
<circle cx="41.0529" cy="82.7368" r="1.89474" fill="#E4C484"/>
<circle cx="41.0529" cy="97.8945" r="1.89474" fill="#E4C484"/>
<circle cx="41.0529" cy="113.052" r="1.89474" fill="#E4C484"/>
<circle cx="41.0529" cy="128.21" r="1.89474" fill="#E4C484"/>
<circle cx="37.2639" cy="75.1577" r="1.89474" fill="#E4C484"/>
<circle cx="37.2639" cy="90.3156" r="1.89474" fill="#E4C484"/>
<circle cx="37.2639" cy="105.474" r="1.89474" fill="#E4C484"/>
<circle cx="37.2639" cy="120.632" r="1.89474" fill="#E4C484"/>
<circle cx="37.2639" cy="135.789" r="1.89474" fill="#E4C484"/>
<circle cx="49.8957" cy="67.5788" r="1.89474" fill="#E4C484"/>
<circle cx="49.8957" cy="82.7368" r="1.89474" fill="#E4C484"/>
<circle cx="49.8957" cy="97.8945" r="1.89474" fill="#E4C484"/>
<circle cx="49.8957" cy="113.052" r="1.89474" fill="#E4C484"/>
<circle cx="49.8957" cy="128.21" r="1.89474" fill="#E4C484"/>
<circle cx="46.1057" cy="75.1577" r="1.89474" fill="#E4C484"/>
<circle cx="46.1057" cy="90.3156" r="1.89474" fill="#E4C484"/>
<circle cx="46.1057" cy="105.474" r="1.89474" fill="#E4C484"/>
<circle cx="46.1057" cy="120.632" r="1.89474" fill="#E4C484"/>
<circle cx="46.1057" cy="135.789" r="1.89474" fill="#E4C484"/>
<circle cx="58.7375" cy="67.5788" r="1.89474" fill="#E4C484"/>
<circle cx="58.7375" cy="82.7368" r="1.89474" fill="#E4C484"/>
<circle cx="58.7375" cy="97.8945" r="1.89474" fill="#E4C484"/>
<circle cx="58.7375" cy="113.052" r="1.89474" fill="#E4C484"/>
<circle cx="58.7375" cy="128.21" r="1.89474" fill="#E4C484"/>
<circle cx="54.9475" cy="75.1577" r="1.89474" fill="#E4C484"/>
<circle cx="54.9475" cy="90.3156" r="1.89474" fill="#E4C484"/>
<circle cx="54.9475" cy="105.474" r="1.89474" fill="#E4C484"/>
<circle cx="54.9475" cy="120.632" r="1.89474" fill="#E4C484"/>
<circle cx="54.9475" cy="135.789" r="1.89474" fill="#E4C484"/>
<circle cx="67.5793" cy="67.5788" r="1.89474" fill="#E4C484"/>
<circle cx="67.5793" cy="82.7368" r="1.89474" fill="#E4C484"/>
<circle cx="67.5793" cy="97.8945" r="1.89474" fill="#E4C484"/>
<circle cx="67.5793" cy="113.052" r="1.89474" fill="#E4C484"/>
<circle cx="67.5793" cy="128.21" r="1.89474" fill="#E4C484"/>
<circle cx="63.7902" cy="75.1577" r="1.89474" fill="#E4C484"/>
<circle cx="63.7902" cy="90.3156" r="1.89474" fill="#E4C484"/>
<circle cx="63.7902" cy="105.474" r="1.89474" fill="#E4C484"/>
<circle cx="63.7902" cy="120.632" r="1.89474" fill="#E4C484"/>
<circle cx="63.7902" cy="135.789" r="1.89474" fill="#E4C484"/>
<circle cx="76.4221" cy="67.5788" r="1.89474" fill="#E4C484"/>
<circle cx="76.4221" cy="82.7368" r="1.89474" fill="#E4C484"/>
<circle cx="76.4221" cy="97.8945" r="1.89474" fill="#E4C484"/>
<circle cx="76.4221" cy="113.052" r="1.89474" fill="#E4C484"/>
<circle cx="76.4221" cy="128.21" r="1.89474" fill="#E4C484"/>
<circle cx="72.632" cy="75.1577" r="1.89474" fill="#E4C484"/>
<circle cx="72.632" cy="90.3156" r="1.89474" fill="#E4C484"/>
<circle cx="72.632" cy="105.474" r="1.89474" fill="#E4C484"/>
<circle cx="72.632" cy="120.632" r="1.89474" fill="#E4C484"/>
<circle cx="72.632" cy="135.789" r="1.89474" fill="#E4C484"/>
<circle cx="85.2639" cy="67.5788" r="1.89474" fill="#E4C484"/>
<circle cx="85.2639" cy="82.7368" r="1.89474" fill="#E4C484"/>
<circle cx="85.2639" cy="97.8945" r="1.89474" fill="#E4C484"/>
<circle cx="85.2639" cy="113.052" r="1.89474" fill="#E4C484"/>
<circle cx="85.2639" cy="128.21" r="1.89474" fill="#E4C484"/>
<circle cx="81.4748" cy="75.1577" r="1.89474" fill="#E4C484"/>
<circle cx="81.4748" cy="90.3156" r="1.89474" fill="#E4C484"/>
<circle cx="81.4748" cy="105.474" r="1.89474" fill="#E4C484"/>
<circle cx="81.4748" cy="120.632" r="1.89474" fill="#E4C484"/>
<circle cx="81.4748" cy="135.789" r="1.89474" fill="#E4C484"/>
<circle cx="94.1057" cy="67.5788" r="1.89474" fill="#E4C484"/>
<circle cx="94.1057" cy="82.7368" r="1.89474" fill="#E4C484"/>
<circle cx="94.1057" cy="97.8945" r="1.89474" fill="#E4C484"/>
<circle cx="94.1057" cy="113.052" r="1.89474" fill="#E4C484"/>
<circle cx="94.1057" cy="128.21" r="1.89474" fill="#E4C484"/>
<circle cx="90.3166" cy="75.1577" r="1.89474" fill="#E4C484"/>
<circle cx="90.3166" cy="90.3156" r="1.89474" fill="#E4C484"/>
<circle cx="90.3166" cy="105.474" r="1.89474" fill="#E4C484"/>
<circle cx="90.3166" cy="120.632" r="1.89474" fill="#E4C484"/>
<circle cx="90.3166" cy="135.789" r="1.89474" fill="#E4C484"/>
<circle cx="102.948" cy="67.5788" r="1.89474" fill="#E4C484"/>
<circle cx="102.948" cy="82.7368" r="1.89474" fill="#E4C484"/>
<circle cx="102.948" cy="97.8945" r="1.89474" fill="#E4C484"/>
<circle cx="102.948" cy="113.052" r="1.89474" fill="#E4C484"/>
<circle cx="102.948" cy="128.21" r="1.89474" fill="#E4C484"/>
<circle cx="99.1584" cy="75.1577" r="1.89474" fill="#E4C484"/>
<circle cx="99.1584" cy="90.3156" r="1.89474" fill="#E4C484"/>
<circle cx="99.1584" cy="105.474" r="1.89474" fill="#E4C484"/>
<circle cx="99.1584" cy="120.632" r="1.89474" fill="#E4C484"/>
<circle cx="99.1584" cy="135.789" r="1.89474" fill="#E4C484"/>
<circle cx="111.79" cy="67.5788" r="1.89474" fill="#E4C484"/>
<circle cx="111.79" cy="82.7368" r="1.89474" fill="#E4C484"/>
<circle cx="111.79" cy="97.8945" r="1.89474" fill="#E4C484"/>
<circle cx="111.79" cy="113.052" r="1.89474" fill="#E4C484"/>
<circle cx="111.79" cy="128.21" r="1.89474" fill="#E4C484"/>
<circle cx="108" cy="75.1577" r="1.89474" fill="#E4C484"/>
<circle cx="108" cy="90.3156" r="1.89474" fill="#E4C484"/>
<circle cx="108" cy="105.474" r="1.89474" fill="#E4C484"/>
<circle cx="108" cy="120.632" r="1.89474" fill="#E4C484"/>
<circle cx="108" cy="135.789" r="1.89474" fill="#E4C484"/>
<circle cx="120.632" cy="67.5788" r="1.89474" fill="#E4C484"/>
<circle cx="120.632" cy="82.7368" r="1.89474" fill="#E4C484"/>
<circle cx="120.632" cy="97.8945" r="1.89474" fill="#E4C484"/>
<circle cx="120.632" cy="113.052" r="1.89474" fill="#E4C484"/>
<circle cx="120.632" cy="128.21" r="1.89474" fill="#E4C484"/>
<circle cx="116.843" cy="75.1577" r="1.89474" fill="#E4C484"/>
<circle cx="116.843" cy="90.3156" r="1.89474" fill="#E4C484"/>
<circle cx="116.843" cy="105.474" r="1.89474" fill="#E4C484"/>
<circle cx="116.843" cy="120.632" r="1.89474" fill="#E4C484"/>
<circle cx="116.843" cy="135.789" r="1.89474" fill="#E4C484"/>
<circle cx="129.474" cy="67.5788" r="1.89474" fill="#E4C484"/>
<circle cx="129.474" cy="82.7368" r="1.89474" fill="#E4C484"/>
<circle cx="129.474" cy="97.8945" r="1.89474" fill="#E4C484"/>
<circle cx="129.474" cy="113.052" r="1.89474" fill="#E4C484"/>
<circle cx="129.474" cy="128.21" r="1.89474" fill="#E4C484"/>
<circle cx="125.685" cy="75.1577" r="1.89474" fill="#E4C484"/>
<circle cx="125.685" cy="90.3156" r="1.89474" fill="#E4C484"/>
<circle cx="125.685" cy="105.474" r="1.89474" fill="#E4C484"/>
<circle cx="125.685" cy="120.632" r="1.89474" fill="#E4C484"/>
<circle cx="125.685" cy="135.789" r="1.89474" fill="#E4C484"/>
<circle cx="138.317" cy="67.5788" r="1.89474" fill="#E4C484"/>
<circle cx="138.317" cy="82.7368" r="1.89474" fill="#E4C484"/>
<circle cx="138.317" cy="97.8945" r="1.89474" fill="#E4C484"/>
<circle cx="138.317" cy="113.052" r="1.89474" fill="#E4C484"/>
<circle cx="138.317" cy="128.21" r="1.89474" fill="#E4C484"/>
<circle cx="134.527" cy="75.1577" r="1.89474" fill="#E4C484"/>
<circle cx="134.527" cy="90.3156" r="1.89474" fill="#E4C484"/>
<circle cx="134.527" cy="105.474" r="1.89474" fill="#E4C484"/>
<circle cx="134.527" cy="120.632" r="1.89474" fill="#E4C484"/>
<circle cx="134.527" cy="135.789" r="1.89474" fill="#E4C484"/>
<circle cx="147.158" cy="67.5788" r="1.89474" fill="#E4C484"/>
<circle cx="147.158" cy="82.7368" r="1.89474" fill="#E4C484"/>
<circle cx="147.158" cy="97.8945" r="1.89474" fill="#E4C484"/>
<circle cx="147.158" cy="113.052" r="1.89474" fill="#E4C484"/>
<circle cx="147.158" cy="128.21" r="1.89474" fill="#E4C484"/>
<circle cx="143.369" cy="75.1577" r="1.89474" fill="#E4C484"/>
<circle cx="143.369" cy="90.3156" r="1.89474" fill="#E4C484"/>
<circle cx="143.369" cy="105.474" r="1.89474" fill="#E4C484"/>
<circle cx="143.369" cy="120.632" r="1.89474" fill="#E4C484"/>
<circle cx="143.369" cy="135.789" r="1.89474" fill="#E4C484"/>
<circle cx="156.001" cy="67.5788" r="1.89474" fill="#E4C484"/>
<circle cx="156.001" cy="82.7368" r="1.89474" fill="#E4C484"/>
<circle cx="156.001" cy="97.8945" r="1.89474" fill="#E4C484"/>
<circle cx="156.001" cy="113.052" r="1.89474" fill="#E4C484"/>
<circle cx="156.001" cy="128.21" r="1.89474" fill="#E4C484"/>
<circle cx="152.211" cy="75.1577" r="1.89474" fill="#E4C484"/>
<circle cx="152.211" cy="90.3156" r="1.89474" fill="#E4C484"/>
<circle cx="152.211" cy="105.474" r="1.89474" fill="#E4C484"/>
<circle cx="152.211" cy="120.632" r="1.89474" fill="#E4C484"/>
<circle cx="152.211" cy="135.789" r="1.89474" fill="#E4C484"/>
<circle cx="164.843" cy="67.5788" r="1.89474" fill="#E4C484"/>
<circle cx="164.843" cy="82.7368" r="1.89474" fill="#E4C484"/>
<circle cx="164.843" cy="97.8945" r="1.89474" fill="#E4C484"/>
<circle cx="164.843" cy="113.052" r="1.89474" fill="#E4C484"/>
<circle cx="164.843" cy="128.21" r="1.89474" fill="#E4C484"/>
<circle cx="161.053" cy="75.1577" r="1.89474" fill="#E4C484"/>
<circle cx="161.053" cy="90.3156" r="1.89474" fill="#E4C484"/>
<circle cx="161.053" cy="105.474" r="1.89474" fill="#E4C484"/>
<circle cx="161.053" cy="120.632" r="1.89474" fill="#E4C484"/>
<circle cx="161.053" cy="135.789" r="1.89474" fill="#E4C484"/>
<circle cx="173.685" cy="67.5788" r="1.89474" fill="#E4C484"/>
<circle cx="173.685" cy="82.7368" r="1.89474" fill="#E4C484"/>
<circle cx="173.685" cy="97.8945" r="1.89474" fill="#E4C484"/>
<circle cx="173.685" cy="113.052" r="1.89474" fill="#E4C484"/>
<circle cx="173.685" cy="128.21" r="1.89474" fill="#E4C484"/>
<circle cx="169.896" cy="75.1577" r="1.89474" fill="#E4C484"/>
<circle cx="169.896" cy="90.3156" r="1.89474" fill="#E4C484"/>
<circle cx="169.896" cy="105.474" r="1.89474" fill="#E4C484"/>
<circle cx="169.896" cy="120.632" r="1.89474" fill="#E4C484"/>
<circle cx="169.896" cy="135.789" r="1.89474" fill="#E4C484"/>
<circle cx="182.527" cy="67.5788" r="1.89474" fill="#E4C484"/>
<circle cx="182.527" cy="82.7368" r="1.89474" fill="#E4C484"/>
<circle cx="182.527" cy="97.8945" r="1.89474" fill="#E4C484"/>
<circle cx="182.527" cy="113.052" r="1.89474" fill="#E4C484"/>
<circle cx="182.527" cy="128.21" r="1.89474" fill="#E4C484"/>
<circle cx="178.738" cy="75.1577" r="1.89474" fill="#E4C484"/>
<circle cx="178.738" cy="90.3156" r="1.89474" fill="#E4C484"/>
<circle cx="178.738" cy="105.474" r="1.89474" fill="#E4C484"/>
<circle cx="178.738" cy="120.632" r="1.89474" fill="#E4C484"/>
<circle cx="178.738" cy="135.789" r="1.89474" fill="#E4C484"/>
<circle cx="191.369" cy="67.5788" r="1.89474" fill="#E4C484"/>
<circle cx="191.369" cy="82.7368" r="1.89474" fill="#E4C484"/>
<circle cx="191.369" cy="97.8945" r="1.89474" fill="#E4C484"/>
<circle cx="191.369" cy="113.052" r="1.89474" fill="#E4C484"/>
<circle cx="191.369" cy="128.21" r="1.89474" fill="#E4C484"/>
<circle cx="187.579" cy="75.1577" r="1.89474" fill="#E4C484"/>
<circle cx="187.579" cy="90.3156" r="1.89474" fill="#E4C484"/>
<circle cx="187.579" cy="105.474" r="1.89474" fill="#E4C484"/>
<circle cx="187.579" cy="120.632" r="1.89474" fill="#E4C484"/>
<circle cx="187.579" cy="135.789" r="1.89474" fill="#E4C484"/>
<circle cx="200.211" cy="67.5788" r="1.89474" fill="#E4C484"/>
<circle cx="200.211" cy="82.7368" r="1.89474" fill="#E4C484"/>
<circle cx="200.211" cy="97.8945" r="1.89474" fill="#E4C484"/>
<circle cx="200.211" cy="113.052" r="1.89474" fill="#E4C484"/>
<circle cx="200.211" cy="128.21" r="1.89474" fill="#E4C484"/>
<circle cx="196.422" cy="75.1577" r="1.89474" fill="#E4C484"/>
<circle cx="196.422" cy="90.3156" r="1.89474" fill="#E4C484"/>
<circle cx="196.422" cy="105.474" r="1.89474" fill="#E4C484"/>
<circle cx="196.422" cy="120.632" r="1.89474" fill="#E4C484"/>
<circle cx="196.422" cy="135.789" r="1.89474" fill="#E4C484"/>
<circle cx="209.053" cy="67.5788" r="1.89474" fill="#E4C484"/>
<circle cx="209.053" cy="82.7368" r="1.89474" fill="#E4C484"/>
<circle cx="209.053" cy="97.8945" r="1.89474" fill="#E4C484"/>
<circle cx="209.053" cy="113.052" r="1.89474" fill="#E4C484"/>
<circle cx="209.053" cy="128.21" r="1.89474" fill="#E4C484"/>
<circle cx="205.264" cy="75.1577" r="1.89474" fill="#E4C484"/>
<circle cx="205.264" cy="90.3156" r="1.89474" fill="#E4C484"/>
<circle cx="205.264" cy="105.474" r="1.89474" fill="#E4C484"/>
<circle cx="205.264" cy="120.632" r="1.89474" fill="#E4C484"/>
<circle cx="205.264" cy="135.789" r="1.89474" fill="#E4C484"/>
<circle cx="217.896" cy="67.5788" r="1.89474" fill="#E4C484"/>
<circle cx="217.896" cy="82.7368" r="1.89474" fill="#E4C484"/>
<circle cx="217.896" cy="97.8945" r="1.89474" fill="#E4C484"/>
<circle cx="217.896" cy="113.052" r="1.89474" fill="#E4C484"/>
<circle cx="217.896" cy="128.21" r="1.89474" fill="#E4C484"/>
<circle cx="214.106" cy="75.1577" r="1.89474" fill="#E4C484"/>
<circle cx="214.106" cy="90.3156" r="1.89474" fill="#E4C484"/>
<circle cx="214.106" cy="105.474" r="1.89474" fill="#E4C484"/>
<circle cx="214.106" cy="120.632" r="1.89474" fill="#E4C484"/>
<circle cx="214.106" cy="135.789" r="1.89474" fill="#E4C484"/>
<circle cx="226.738" cy="67.5788" r="1.89474" fill="#E4C484"/>
<circle cx="226.738" cy="82.7368" r="1.89474" fill="#E4C484"/>
<circle cx="226.738" cy="97.8945" r="1.89474" fill="#E4C484"/>
<circle cx="226.738" cy="113.052" r="1.89474" fill="#E4C484"/>
<circle cx="226.738" cy="128.21" r="1.89474" fill="#E4C484"/>
<circle cx="222.948" cy="75.1577" r="1.89474" fill="#E4C484"/>
<circle cx="222.948" cy="90.3156" r="1.89474" fill="#E4C484"/>
<circle cx="222.948" cy="105.474" r="1.89474" fill="#E4C484"/>
<circle cx="222.948" cy="120.632" r="1.89474" fill="#E4C484"/>
<circle cx="222.948" cy="135.789" r="1.89474" fill="#E4C484"/>
<circle cx="235.579" cy="67.5788" r="1.89474" fill="#E4C484"/>
<circle cx="235.579" cy="82.7368" r="1.89474" fill="#E4C484"/>
<circle cx="235.579" cy="97.8945" r="1.89474" fill="#E4C484"/>
<circle cx="235.579" cy="113.052" r="1.89474" fill="#E4C484"/>
<circle cx="235.579" cy="128.21" r="1.89474" fill="#E4C484"/>
<circle cx="231.79" cy="75.1577" r="1.89474" fill="#E4C484"/>
<circle cx="231.79" cy="90.3156" r="1.89474" fill="#E4C484"/>
<circle cx="231.79" cy="105.474" r="1.89474" fill="#E4C484"/>
<circle cx="231.79" cy="120.632" r="1.89474" fill="#E4C484"/>
<circle cx="231.79" cy="135.789" r="1.89474" fill="#E4C484"/>
<circle cx="244.422" cy="67.5788" r="1.89474" fill="#E4C484"/>
<circle cx="244.422" cy="82.7368" r="1.89474" fill="#E4C484"/>
<circle cx="244.422" cy="97.8945" r="1.89474" fill="#E4C484"/>
<circle cx="244.422" cy="113.052" r="1.89474" fill="#E4C484"/>
<circle cx="244.422" cy="128.21" r="1.89474" fill="#E4C484"/>
<circle cx="240.632" cy="75.1577" r="1.89474" fill="#E4C484"/>
<circle cx="240.632" cy="90.3156" r="1.89474" fill="#E4C484"/>
<circle cx="240.632" cy="105.474" r="1.89474" fill="#E4C484"/>
<circle cx="240.632" cy="120.632" r="1.89474" fill="#E4C484"/>
<circle cx="240.632" cy="135.789" r="1.89474" fill="#E4C484"/>
<circle cx="253.264" cy="67.5788" r="1.89474" fill="#E4C484"/>
<circle cx="253.264" cy="82.7368" r="1.89474" fill="#E4C484"/>
<circle cx="253.264" cy="97.8945" r="1.89474" fill="#E4C484"/>
<circle cx="253.264" cy="113.052" r="1.89474" fill="#E4C484"/>
<circle cx="253.264" cy="128.21" r="1.89474" fill="#E4C484"/>
<circle cx="249.475" cy="75.1577" r="1.89474" fill="#E4C484"/>
<circle cx="249.475" cy="90.3156" r="1.89474" fill="#E4C484"/>
<circle cx="249.475" cy="105.474" r="1.89474" fill="#E4C484"/>
<circle cx="249.475" cy="120.632" r="1.89474" fill="#E4C484"/>
<circle cx="249.475" cy="135.789" r="1.89474" fill="#E4C484"/>
<circle cx="262.106" cy="67.5788" r="1.89474" fill="#E4C484"/>
<circle cx="262.106" cy="82.7368" r="1.89474" fill="#E4C484"/>
<circle cx="262.106" cy="97.8945" r="1.89474" fill="#E4C484"/>
<circle cx="262.106" cy="113.052" r="1.89474" fill="#E4C484"/>
<circle cx="262.106" cy="128.21" r="1.89474" fill="#E4C484"/>
<circle cx="258.317" cy="75.1577" r="1.89474" fill="#E4C484"/>
<circle cx="258.317" cy="90.3156" r="1.89474" fill="#E4C484"/>
<circle cx="258.317" cy="105.474" r="1.89474" fill="#E4C484"/>
<circle cx="258.317" cy="120.632" r="1.89474" fill="#E4C484"/>
<circle cx="258.317" cy="135.789" r="1.89474" fill="#E4C484"/>
<circle cx="270.947" cy="67.5788" r="1.89474" fill="#E4C484"/>
<circle cx="270.947" cy="82.7368" r="1.89474" fill="#E4C484"/>
<circle cx="270.947" cy="97.8945" r="1.89474" fill="#E4C484"/>
<circle cx="270.947" cy="113.052" r="1.89474" fill="#E4C484"/>
<circle cx="270.947" cy="128.21" r="1.89474" fill="#E4C484"/>
<circle cx="267.158" cy="75.1577" r="1.89474" fill="#E4C484"/>
<circle cx="267.158" cy="90.3156" r="1.89474" fill="#E4C484"/>
<circle cx="267.158" cy="105.474" r="1.89474" fill="#E4C484"/>
<circle cx="267.158" cy="120.632" r="1.89474" fill="#E4C484"/>
<circle cx="267.158" cy="135.789" r="1.89474" fill="#E4C484"/>
<circle cx="279.79" cy="67.5788" r="1.89474" fill="#E4C484"/>
<circle cx="279.79" cy="82.7368" r="1.89474" fill="#E4C484"/>
<circle cx="279.79" cy="97.8945" r="1.89474" fill="#E4C484"/>
<circle cx="279.79" cy="113.052" r="1.89474" fill="#E4C484"/>
<circle cx="279.79" cy="128.21" r="1.89474" fill="#E4C484"/>
<circle cx="276" cy="75.1577" r="1.89474" fill="#E4C484"/>
<circle cx="276" cy="90.3156" r="1.89474" fill="#E4C484"/>
<circle cx="276" cy="105.474" r="1.89474" fill="#E4C484"/>
<circle cx="276" cy="120.632" r="1.89474" fill="#E4C484"/>
<circle cx="276" cy="135.789" r="1.89474" fill="#E4C484"/>
<circle cx="288.632" cy="67.5788" r="1.89474" fill="#E4C484"/>
<circle cx="288.632" cy="82.7368" r="1.89474" fill="#E4C484"/>
<circle cx="288.632" cy="97.8945" r="1.89474" fill="#E4C484"/>
<circle cx="288.632" cy="113.052" r="1.89474" fill="#E4C484"/>
<circle cx="288.632" cy="128.21" r="1.89474" fill="#E4C484"/>
<circle cx="284.843" cy="75.1577" r="1.89474" fill="#E4C484"/>
<circle cx="284.843" cy="90.3156" r="1.89474" fill="#E4C484"/>
<circle cx="284.843" cy="105.474" r="1.89474" fill="#E4C484"/>
<circle cx="284.843" cy="120.632" r="1.89474" fill="#E4C484"/>
<circle cx="284.843" cy="135.789" r="1.89474" fill="#E4C484"/>
<circle cx="297.475" cy="67.5788" r="1.89474" fill="#E4C484"/>
<circle cx="297.475" cy="82.7368" r="1.89474" fill="#E4C484"/>
<circle cx="297.475" cy="97.8945" r="1.89474" fill="#E4C484"/>
<circle cx="297.475" cy="113.052" r="1.89474" fill="#E4C484"/>
<circle cx="297.475" cy="128.21" r="1.89474" fill="#E4C484"/>
<circle cx="293.685" cy="75.1577" r="1.89474" fill="#E4C484"/>
<circle cx="293.685" cy="90.3156" r="1.89474" fill="#E4C484"/>
<circle cx="293.685" cy="105.474" r="1.89474" fill="#E4C484"/>
<circle cx="293.685" cy="120.632" r="1.89474" fill="#E4C484"/>
<circle cx="293.685" cy="135.789" r="1.89474" fill="#E4C484"/>
<circle cx="306.317" cy="67.5788" r="1.89474" fill="#E4C484"/>
<circle cx="306.317" cy="82.7368" r="1.89474" fill="#E4C484"/>
<circle cx="306.317" cy="97.8945" r="1.89474" fill="#E4C484"/>
<circle cx="306.317" cy="113.052" r="1.89474" fill="#E4C484"/>
<circle cx="306.317" cy="128.21" r="1.89474" fill="#E4C484"/>
<circle cx="302.527" cy="75.1577" r="1.89474" fill="#E4C484"/>
<circle cx="302.527" cy="90.3156" r="1.89474" fill="#E4C484"/>
<circle cx="302.527" cy="105.474" r="1.89474" fill="#E4C484"/>
<circle cx="302.527" cy="120.632" r="1.89474" fill="#E4C484"/>
<circle cx="302.527" cy="135.789" r="1.89474" fill="#E4C484"/>
</g>
</g>
<mask id="maskR1" style="mask-type:alpha" maskUnits="userSpaceOnUse" x="893" y="30" width="340" height="132">
<path d="M1138.74 92.842C1171.07 79.7052 1214.95 60.421 1232.84 52.421L1169.68 39.7894L1018.74 30.9473L893.053 144L917.053 161.684C919.158 161.474 938.4 157.137 998.526 141.474C1073.68 121.895 1098.32 109.263 1138.74 92.842Z" fill="#D9D9D9"/>
</mask>
<g mask="url(#maskR1)">
<mask id="maskR2" style="mask-type:alpha" maskUnits="userSpaceOnUse" x="870" y="65" width="451" height="112">
<path d="M1028.84 76.5176C980.843 95.2124 903.159 150.833 870.316 176.307L1320.63 170.623C1304.84 153.149 1263.03 113.528 1222.11 94.8334C1170.95 71.465 1088.84 53.1492 1028.84 76.5176Z" fill="#D9D9D9"/>
</mask>
<g mask="url(#maskR2)">
<circle cx="896.211" cy="67.5788" r="1.89474" fill="#A1AF86"/>
<circle cx="896.211" cy="82.7368" r="1.89474" fill="#A1AF86"/>
<circle cx="896.211" cy="97.8945" r="1.89474" fill="#A1AF86"/>
<circle cx="896.211" cy="113.052" r="1.89474" fill="#A1AF86"/>
<circle cx="896.211" cy="128.21" r="1.89474" fill="#A1AF86"/>
<circle cx="892.421" cy="75.1577" r="1.89474" fill="#A1AF86"/>
<circle cx="892.421" cy="90.3156" r="1.89474" fill="#A1AF86"/>
<circle cx="892.421" cy="105.474" r="1.89474" fill="#A1AF86"/>
<circle cx="892.421" cy="120.632" r="1.89474" fill="#A1AF86"/>
<circle cx="892.421" cy="135.789" r="1.89474" fill="#A1AF86"/>
<circle cx="905.053" cy="67.5788" r="1.89474" fill="#A1AF86"/>
<circle cx="905.053" cy="82.7368" r="1.89474" fill="#A1AF86"/>
<circle cx="905.053" cy="97.8945" r="1.89474" fill="#A1AF86"/>
<circle cx="905.053" cy="113.052" r="1.89474" fill="#A1AF86"/>
<circle cx="905.053" cy="128.21" r="1.89474" fill="#A1AF86"/>
<circle cx="901.264" cy="75.1577" r="1.89474" fill="#A1AF86"/>
<circle cx="901.264" cy="90.3156" r="1.89474" fill="#A1AF86"/>
<circle cx="901.264" cy="105.474" r="1.89474" fill="#A1AF86"/>
<circle cx="901.264" cy="120.632" r="1.89474" fill="#A1AF86"/>
<circle cx="901.264" cy="135.789" r="1.89474" fill="#A1AF86"/>
<circle cx="913.895" cy="67.5788" r="1.89474" fill="#A1AF86"/>
<circle cx="913.895" cy="82.7368" r="1.89474" fill="#A1AF86"/>
<circle cx="913.895" cy="97.8945" r="1.89474" fill="#A1AF86"/>
<circle cx="913.895" cy="113.052" r="1.89474" fill="#A1AF86"/>
<circle cx="913.895" cy="128.21" r="1.89474" fill="#A1AF86"/>
<circle cx="910.106" cy="75.1577" r="1.89474" fill="#A1AF86"/>
<circle cx="910.106" cy="90.3156" r="1.89474" fill="#A1AF86"/>
<circle cx="910.106" cy="105.474" r="1.89474" fill="#A1AF86"/>
<circle cx="910.106" cy="120.632" r="1.89474" fill="#A1AF86"/>
<circle cx="910.106" cy="135.789" r="1.89474" fill="#A1AF86"/>
<circle cx="922.737" cy="67.5788" r="1.89474" fill="#A1AF86"/>
<circle cx="922.737" cy="82.7368" r="1.89474" fill="#A1AF86"/>
<circle cx="922.737" cy="97.8945" r="1.89474" fill="#A1AF86"/>
<circle cx="922.737" cy="113.052" r="1.89474" fill="#A1AF86"/>
<circle cx="922.737" cy="128.21" r="1.89474" fill="#A1AF86"/>
<circle cx="918.947" cy="75.1577" r="1.89474" fill="#A1AF86"/>
<circle cx="918.947" cy="90.3156" r="1.89474" fill="#A1AF86"/>
<circle cx="918.947" cy="105.474" r="1.89474" fill="#A1AF86"/>
<circle cx="918.947" cy="120.632" r="1.89474" fill="#A1AF86"/>
<circle cx="918.947" cy="135.789" r="1.89474" fill="#A1AF86"/>
<circle cx="931.579" cy="67.5788" r="1.89474" fill="#A1AF86"/>
<circle cx="931.579" cy="82.7368" r="1.89474" fill="#A1AF86"/>
<circle cx="931.579" cy="97.8945" r="1.89474" fill="#A1AF86"/>
<circle cx="931.579" cy="113.052" r="1.89474" fill="#A1AF86"/>
<circle cx="931.579" cy="128.21" r="1.89474" fill="#A1AF86"/>
<circle cx="927.79" cy="75.1577" r="1.89474" fill="#A1AF86"/>
<circle cx="927.79" cy="90.3156" r="1.89474" fill="#A1AF86"/>
<circle cx="927.79" cy="105.474" r="1.89474" fill="#A1AF86"/>
<circle cx="927.79" cy="120.632" r="1.89474" fill="#A1AF86"/>
<circle cx="927.79" cy="135.789" r="1.89474" fill="#A1AF86"/>
<circle cx="940.421" cy="67.5788" r="1.89474" fill="#A1AF86"/>
<circle cx="940.421" cy="82.7368" r="1.89474" fill="#A1AF86"/>
<circle cx="940.421" cy="97.8945" r="1.89474" fill="#A1AF86"/>
<circle cx="940.421" cy="113.052" r="1.89474" fill="#A1AF86"/>
<circle cx="940.421" cy="128.21" r="1.89474" fill="#A1AF86"/>
<circle cx="936.632" cy="75.1577" r="1.89474" fill="#A1AF86"/>
<circle cx="936.632" cy="90.3156" r="1.89474" fill="#A1AF86"/>
<circle cx="936.632" cy="105.474" r="1.89474" fill="#A1AF86"/>
<circle cx="936.632" cy="120.632" r="1.89474" fill="#A1AF86"/>
<circle cx="936.632" cy="135.789" r="1.89474" fill="#A1AF86"/>
<circle cx="949.264" cy="67.5788" r="1.89474" fill="#A1AF86"/>
<circle cx="949.264" cy="82.7368" r="1.89474" fill="#A1AF86"/>
<circle cx="949.264" cy="97.8945" r="1.89474" fill="#A1AF86"/>
<circle cx="949.264" cy="113.052" r="1.89474" fill="#A1AF86"/>
<circle cx="949.264" cy="128.21" r="1.89474" fill="#A1AF86"/>
<circle cx="945.474" cy="75.1577" r="1.89474" fill="#A1AF86"/>
<circle cx="945.474" cy="90.3156" r="1.89474" fill="#A1AF86"/>
<circle cx="945.474" cy="105.474" r="1.89474" fill="#A1AF86"/>
<circle cx="945.474" cy="120.632" r="1.89474" fill="#A1AF86"/>
<circle cx="945.474" cy="135.789" r="1.89474" fill="#A1AF86"/>
<circle cx="958.106" cy="67.5788" r="1.89474" fill="#A1AF86"/>
<circle cx="958.106" cy="82.7368" r="1.89474" fill="#A1AF86"/>
<circle cx="958.106" cy="97.8945" r="1.89474" fill="#A1AF86"/>
<circle cx="958.106" cy="113.052" r="1.89474" fill="#A1AF86"/>
<circle cx="958.106" cy="128.21" r="1.89474" fill="#A1AF86"/>
<circle cx="954.317" cy="75.1577" r="1.89474" fill="#A1AF86"/>
<circle cx="954.317" cy="90.3156" r="1.89474" fill="#A1AF86"/>
<circle cx="954.317" cy="105.474" r="1.89474" fill="#A1AF86"/>
<circle cx="954.317" cy="120.632" r="1.89474" fill="#A1AF86"/>
<circle cx="954.317" cy="135.789" r="1.89474" fill="#A1AF86"/>
<circle cx="966.947" cy="67.5788" r="1.89474" fill="#A1AF86"/>
<circle cx="966.947" cy="82.7368" r="1.89474" fill="#A1AF86"/>
<circle cx="966.947" cy="97.8945" r="1.89474" fill="#A1AF86"/>
<circle cx="966.947" cy="113.052" r="1.89474" fill="#A1AF86"/>
<circle cx="966.947" cy="128.21" r="1.89474" fill="#A1AF86"/>
<circle cx="963.158" cy="75.1577" r="1.89474" fill="#A1AF86"/>
<circle cx="963.158" cy="90.3156" r="1.89474" fill="#A1AF86"/>
<circle cx="963.158" cy="105.474" r="1.89474" fill="#A1AF86"/>
<circle cx="963.158" cy="120.632" r="1.89474" fill="#A1AF86"/>
<circle cx="963.158" cy="135.789" r="1.89474" fill="#A1AF86"/>
<circle cx="975.79" cy="67.5788" r="1.89474" fill="#A1AF86"/>
<circle cx="975.79" cy="82.7368" r="1.89474" fill="#A1AF86"/>
<circle cx="975.79" cy="97.8945" r="1.89474" fill="#A1AF86"/>
<circle cx="975.79" cy="113.052" r="1.89474" fill="#A1AF86"/>
<circle cx="975.79" cy="128.21" r="1.89474" fill="#A1AF86"/>
<circle cx="972" cy="75.1577" r="1.89474" fill="#A1AF86"/>
<circle cx="972" cy="90.3156" r="1.89474" fill="#A1AF86"/>
<circle cx="972" cy="105.474" r="1.89474" fill="#A1AF86"/>
<circle cx="972" cy="120.632" r="1.89474" fill="#A1AF86"/>
<circle cx="972" cy="135.789" r="1.89474" fill="#A1AF86"/>
<circle cx="984.632" cy="67.5788" r="1.89474" fill="#A1AF86"/>
<circle cx="984.632" cy="82.7368" r="1.89474" fill="#A1AF86"/>
<circle cx="984.632" cy="97.8945" r="1.89474" fill="#A1AF86"/>
<circle cx="984.632" cy="113.052" r="1.89474" fill="#A1AF86"/>
<circle cx="984.632" cy="128.21" r="1.89474" fill="#A1AF86"/>
<circle cx="980.842" cy="75.1577" r="1.89474" fill="#A1AF86"/>
<circle cx="980.842" cy="90.3156" r="1.89474" fill="#A1AF86"/>
<circle cx="980.842" cy="105.474" r="1.89474" fill="#A1AF86"/>
<circle cx="980.842" cy="120.632" r="1.89474" fill="#A1AF86"/>
<circle cx="980.842" cy="135.789" r="1.89474" fill="#A1AF86"/>
<circle cx="993.474" cy="67.5788" r="1.89474" fill="#A1AF86"/>
<circle cx="993.474" cy="82.7368" r="1.89474" fill="#A1AF86"/>
<circle cx="993.474" cy="97.8945" r="1.89474" fill="#A1AF86"/>
<circle cx="993.474" cy="113.052" r="1.89474" fill="#A1AF86"/>
<circle cx="993.474" cy="128.21" r="1.89474" fill="#A1AF86"/>
<circle cx="989.685" cy="75.1577" r="1.89474" fill="#A1AF86"/>
<circle cx="989.685" cy="90.3156" r="1.89474" fill="#A1AF86"/>
<circle cx="989.685" cy="105.474" r="1.89474" fill="#A1AF86"/>
<circle cx="989.685" cy="120.632" r="1.89474" fill="#A1AF86"/>
<circle cx="989.685" cy="135.789" r="1.89474" fill="#A1AF86"/>
<circle cx="1002.32" cy="67.5788" r="1.89474" fill="#A1AF86"/>
<circle cx="1002.32" cy="82.7368" r="1.89474" fill="#A1AF86"/>
<circle cx="1002.32" cy="97.8945" r="1.89474" fill="#A1AF86"/>
<circle cx="1002.32" cy="113.052" r="1.89474" fill="#A1AF86"/>
<circle cx="1002.32" cy="128.21" r="1.89474" fill="#A1AF86"/>
<circle cx="998.527" cy="75.1577" r="1.89474" fill="#A1AF86"/>
<circle cx="998.527" cy="90.3156" r="1.89474" fill="#A1AF86"/>
<circle cx="998.527" cy="105.474" r="1.89474" fill="#A1AF86"/>
<circle cx="998.527" cy="120.632" r="1.89474" fill="#A1AF86"/>
<circle cx="998.527" cy="135.789" r="1.89474" fill="#A1AF86"/>
<circle cx="1011.16" cy="67.5788" r="1.89474" fill="#A1AF86"/>
<circle cx="1011.16" cy="82.7368" r="1.89474" fill="#A1AF86"/>
<circle cx="1011.16" cy="97.8945" r="1.89474" fill="#A1AF86"/>
<circle cx="1011.16" cy="113.052" r="1.89474" fill="#A1AF86"/>
<circle cx="1011.16" cy="128.21" r="1.89474" fill="#A1AF86"/>
<circle cx="1007.37" cy="75.1577" r="1.89474" fill="#A1AF86"/>
<circle cx="1007.37" cy="90.3156" r="1.89474" fill="#A1AF86"/>
<circle cx="1007.37" cy="105.474" r="1.89474" fill="#A1AF86"/>
<circle cx="1007.37" cy="120.632" r="1.89474" fill="#A1AF86"/>
<circle cx="1007.37" cy="135.789" r="1.89474" fill="#A1AF86"/>
<circle cx="1020" cy="67.5788" r="1.89474" fill="#A1AF86"/>
<circle cx="1020" cy="82.7368" r="1.89474" fill="#A1AF86"/>
<circle cx="1020" cy="97.8945" r="1.89474" fill="#A1AF86"/>
<circle cx="1020" cy="113.052" r="1.89474" fill="#A1AF86"/>
<circle cx="1020" cy="128.21" r="1.89474" fill="#A1AF86"/>
<circle cx="1016.21" cy="75.1577" r="1.89474" fill="#A1AF86"/>
<circle cx="1016.21" cy="90.3156" r="1.89474" fill="#A1AF86"/>
<circle cx="1016.21" cy="105.474" r="1.89474" fill="#A1AF86"/>
<circle cx="1016.21" cy="120.632" r="1.89474" fill="#A1AF86"/>
<circle cx="1016.21" cy="135.789" r="1.89474" fill="#A1AF86"/>
<circle cx="1028.84" cy="67.5788" r="1.89474" fill="#A1AF86"/>
<circle cx="1028.84" cy="82.7368" r="1.89474" fill="#A1AF86"/>
<circle cx="1028.84" cy="97.8945" r="1.89474" fill="#A1AF86"/>
<circle cx="1028.84" cy="113.052" r="1.89474" fill="#A1AF86"/>
<circle cx="1028.84" cy="128.21" r="1.89474" fill="#A1AF86"/>
<circle cx="1025.05" cy="75.1577" r="1.89474" fill="#A1AF86"/>
<circle cx="1025.05" cy="90.3156" r="1.89474" fill="#A1AF86"/>
<circle cx="1025.05" cy="105.474" r="1.89474" fill="#A1AF86"/>
<circle cx="1025.05" cy="120.632" r="1.89474" fill="#A1AF86"/>
<circle cx="1025.05" cy="135.789" r="1.89474" fill="#A1AF86"/>
<circle cx="1037.68" cy="67.5788" r="1.89474" fill="#A1AF86"/>
<circle cx="1037.68" cy="82.7368" r="1.89474" fill="#A1AF86"/>
<circle cx="1037.68" cy="97.8945" r="1.89474" fill="#A1AF86"/>
<circle cx="1037.68" cy="113.052" r="1.89474" fill="#A1AF86"/>
<circle cx="1037.68" cy="128.21" r="1.89474" fill="#A1AF86"/>
<circle cx="1033.89" cy="75.1577" r="1.89474" fill="#A1AF86"/>
<circle cx="1033.89" cy="90.3156" r="1.89474" fill="#A1AF86"/>
<circle cx="1033.89" cy="105.474" r="1.89474" fill="#A1AF86"/>
<circle cx="1033.89" cy="120.632" r="1.89474" fill="#A1AF86"/>
<circle cx="1033.89" cy="135.789" r="1.89474" fill="#A1AF86"/>
<circle cx="1046.53" cy="67.5788" r="1.89474" fill="#A1AF86"/>
<circle cx="1046.53" cy="82.7368" r="1.89474" fill="#A1AF86"/>
<circle cx="1046.53" cy="97.8945" r="1.89474" fill="#A1AF86"/>
<circle cx="1046.53" cy="113.052" r="1.89474" fill="#A1AF86"/>
<circle cx="1046.53" cy="128.21" r="1.89474" fill="#A1AF86"/>
<circle cx="1042.74" cy="75.1577" r="1.89474" fill="#A1AF86"/>
<circle cx="1042.74" cy="90.3156" r="1.89474" fill="#A1AF86"/>
<circle cx="1042.74" cy="105.474" r="1.89474" fill="#A1AF86"/>
<circle cx="1042.74" cy="120.632" r="1.89474" fill="#A1AF86"/>
<circle cx="1042.74" cy="135.789" r="1.89474" fill="#A1AF86"/>
<circle cx="1055.37" cy="67.5788" r="1.89474" fill="#A1AF86"/>
<circle cx="1055.37" cy="82.7368" r="1.89474" fill="#A1AF86"/>
<circle cx="1055.37" cy="97.8945" r="1.89474" fill="#A1AF86"/>
<circle cx="1055.37" cy="113.052" r="1.89474" fill="#A1AF86"/>
<circle cx="1055.37" cy="128.21" r="1.89474" fill="#A1AF86"/>
<circle cx="1051.58" cy="75.1577" r="1.89474" fill="#A1AF86"/>
<circle cx="1051.58" cy="90.3156" r="1.89474" fill="#A1AF86"/>
<circle cx="1051.58" cy="105.474" r="1.89474" fill="#A1AF86"/>
<circle cx="1051.58" cy="120.632" r="1.89474" fill="#A1AF86"/>
<circle cx="1051.58" cy="135.789" r="1.89474" fill="#A1AF86"/>
<circle cx="1064.21" cy="67.5788" r="1.89474" fill="#A1AF86"/>
<circle cx="1064.21" cy="82.7368" r="1.89474" fill="#A1AF86"/>
<circle cx="1064.21" cy="97.8945" r="1.89474" fill="#A1AF86"/>
<circle cx="1064.21" cy="113.052" r="1.89474" fill="#A1AF86"/>
<circle cx="1064.21" cy="128.21" r="1.89474" fill="#A1AF86"/>
<circle cx="1060.42" cy="75.1577" r="1.89474" fill="#A1AF86"/>
<circle cx="1060.42" cy="90.3156" r="1.89474" fill="#A1AF86"/>
<circle cx="1060.42" cy="105.474" r="1.89474" fill="#A1AF86"/>
<circle cx="1060.42" cy="120.632" r="1.89474" fill="#A1AF86"/>
<circle cx="1060.42" cy="135.789" r="1.89474" fill="#A1AF86"/>
<circle cx="1073.05" cy="67.5788" r="1.89474" fill="#A1AF86"/>
<circle cx="1073.05" cy="82.7368" r="1.89474" fill="#A1AF86"/>
<circle cx="1073.05" cy="97.8945" r="1.89474" fill="#A1AF86"/>
<circle cx="1073.05" cy="113.052" r="1.89474" fill="#A1AF86"/>
<circle cx="1073.05" cy="128.21" r="1.89474" fill="#A1AF86"/>
<circle cx="1069.26" cy="75.1577" r="1.89474" fill="#A1AF86"/>
<circle cx="1069.26" cy="90.3156" r="1.89474" fill="#A1AF86"/>
<circle cx="1069.26" cy="105.474" r="1.89474" fill="#A1AF86"/>
<circle cx="1069.26" cy="120.632" r="1.89474" fill="#A1AF86"/>
<circle cx="1069.26" cy="135.789" r="1.89474" fill="#A1AF86"/>
<circle cx="1081.9" cy="67.5788" r="1.89474" fill="#A1AF86"/>
<circle cx="1081.9" cy="82.7368" r="1.89474" fill="#A1AF86"/>
<circle cx="1081.9" cy="97.8945" r="1.89474" fill="#A1AF86"/>
<circle cx="1081.9" cy="113.052" r="1.89474" fill="#A1AF86"/>
<circle cx="1081.9" cy="128.21" r="1.89474" fill="#A1AF86"/>
<circle cx="1078.11" cy="75.1577" r="1.89474" fill="#A1AF86"/>
<circle cx="1078.11" cy="90.3156" r="1.89474" fill="#A1AF86"/>
<circle cx="1078.11" cy="105.474" r="1.89474" fill="#A1AF86"/>
<circle cx="1078.11" cy="120.632" r="1.89474" fill="#A1AF86"/>
<circle cx="1078.11" cy="135.789" r="1.89474" fill="#A1AF86"/>
<circle cx="1090.74" cy="67.5788" r="1.89474" fill="#A1AF86"/>
<circle cx="1090.74" cy="82.7368" r="1.89474" fill="#A1AF86"/>
<circle cx="1090.74" cy="97.8945" r="1.89474" fill="#A1AF86"/>
<circle cx="1090.74" cy="113.052" r="1.89474" fill="#A1AF86"/>
<circle cx="1090.74" cy="128.21" r="1.89474" fill="#A1AF86"/>
<circle cx="1086.95" cy="75.1577" r="1.89474" fill="#A1AF86"/>
<circle cx="1086.95" cy="90.3156" r="1.89474" fill="#A1AF86"/>
<circle cx="1086.95" cy="105.474" r="1.89474" fill="#A1AF86"/>
<circle cx="1086.95" cy="120.632" r="1.89474" fill="#A1AF86"/>
<circle cx="1086.95" cy="135.789" r="1.89474" fill="#A1AF86"/>
<circle cx="1099.58" cy="67.5788" r="1.89474" fill="#A1AF86"/>
<circle cx="1099.58" cy="82.7368" r="1.89474" fill="#A1AF86"/>
<circle cx="1099.58" cy="97.8945" r="1.89474" fill="#A1AF86"/>
<circle cx="1099.58" cy="113.052" r="1.89474" fill="#A1AF86"/>
<circle cx="1099.58" cy="128.21" r="1.89474" fill="#A1AF86"/>
<circle cx="1095.79" cy="75.1577" r="1.89474" fill="#A1AF86"/>
<circle cx="1095.79" cy="90.3156" r="1.89474" fill="#A1AF86"/>
<circle cx="1095.79" cy="105.474" r="1.89474" fill="#A1AF86"/>
<circle cx="1095.79" cy="120.632" r="1.89474" fill="#A1AF86"/>
<circle cx="1095.79" cy="135.789" r="1.89474" fill="#A1AF86"/>
<circle cx="1108.42" cy="67.5788" r="1.89474" fill="#A1AF86"/>
<circle cx="1108.42" cy="82.7368" r="1.89474" fill="#A1AF86"/>
<circle cx="1108.42" cy="97.8945" r="1.89474" fill="#A1AF86"/>
<circle cx="1108.42" cy="113.052" r="1.89474" fill="#A1AF86"/>
<circle cx="1108.42" cy="128.21" r="1.89474" fill="#A1AF86"/>
<circle cx="1104.63" cy="75.1577" r="1.89474" fill="#A1AF86"/>
<circle cx="1104.63" cy="90.3156" r="1.89474" fill="#A1AF86"/>
<circle cx="1104.63" cy="105.474" r="1.89474" fill="#A1AF86"/>
<circle cx="1104.63" cy="120.632" r="1.89474" fill="#A1AF86"/>
<circle cx="1104.63" cy="135.789" r="1.89474" fill="#A1AF86"/>
<circle cx="1117.26" cy="67.5788" r="1.89474" fill="#A1AF86"/>
<circle cx="1117.26" cy="82.7368" r="1.89474" fill="#A1AF86"/>
<circle cx="1117.26" cy="97.8945" r="1.89474" fill="#A1AF86"/>
<circle cx="1117.26" cy="113.052" r="1.89474" fill="#A1AF86"/>
<circle cx="1117.26" cy="128.21" r="1.89474" fill="#A1AF86"/>
<circle cx="1113.47" cy="75.1577" r="1.89474" fill="#A1AF86"/>
<circle cx="1113.47" cy="90.3156" r="1.89474" fill="#A1AF86"/>
<circle cx="1113.47" cy="105.474" r="1.89474" fill="#A1AF86"/>
<circle cx="1113.47" cy="120.632" r="1.89474" fill="#A1AF86"/>
<circle cx="1113.47" cy="135.789" r="1.89474" fill="#A1AF86"/>
<circle cx="1126.11" cy="67.5788" r="1.89474" fill="#A1AF86"/>
<circle cx="1126.11" cy="82.7368" r="1.89474" fill="#A1AF86"/>
<circle cx="1126.11" cy="97.8945" r="1.89474" fill="#A1AF86"/>
<circle cx="1126.11" cy="113.052" r="1.89474" fill="#A1AF86"/>
<circle cx="1126.11" cy="128.21" r="1.89474" fill="#A1AF86"/>
<circle cx="1122.32" cy="75.1577" r="1.89474" fill="#A1AF86"/>
<circle cx="1122.32" cy="90.3156" r="1.89474" fill="#A1AF86"/>
<circle cx="1122.32" cy="105.474" r="1.89474" fill="#A1AF86"/>
<circle cx="1122.32" cy="120.632" r="1.89474" fill="#A1AF86"/>
<circle cx="1122.32" cy="135.789" r="1.89474" fill="#A1AF86"/>
<circle cx="1134.95" cy="67.5788" r="1.89474" fill="#A1AF86"/>
<circle cx="1134.95" cy="82.7368" r="1.89474" fill="#A1AF86"/>
<circle cx="1134.95" cy="97.8945" r="1.89474" fill="#A1AF86"/>
<circle cx="1134.95" cy="113.052" r="1.89474" fill="#A1AF86"/>
<circle cx="1134.95" cy="128.21" r="1.89474" fill="#A1AF86"/>
<circle cx="1131.16" cy="75.1577" r="1.89474" fill="#A1AF86"/>
<circle cx="1131.16" cy="90.3156" r="1.89474" fill="#A1AF86"/>
<circle cx="1131.16" cy="105.474" r="1.89474" fill="#A1AF86"/>
<circle cx="1131.16" cy="120.632" r="1.89474" fill="#A1AF86"/>
<circle cx="1131.16" cy="135.789" r="1.89474" fill="#A1AF86"/>
<circle cx="1143.79" cy="67.5788" r="1.89474" fill="#A1AF86"/>
<circle cx="1143.79" cy="82.7368" r="1.89474" fill="#A1AF86"/>
<circle cx="1143.79" cy="97.8945" r="1.89474" fill="#A1AF86"/>
<circle cx="1143.79" cy="113.052" r="1.89474" fill="#A1AF86"/>
<circle cx="1143.79" cy="128.21" r="1.89474" fill="#A1AF86"/>
<circle cx="1140" cy="75.1577" r="1.89474" fill="#A1AF86"/>
<circle cx="1140" cy="90.3156" r="1.89474" fill="#A1AF86"/>
<circle cx="1140" cy="105.474" r="1.89474" fill="#A1AF86"/>
<circle cx="1140" cy="120.632" r="1.89474" fill="#A1AF86"/>
<circle cx="1140" cy="135.789" r="1.89474" fill="#A1AF86"/>
<circle cx="1152.63" cy="67.5788" r="1.89474" fill="#A1AF86"/>
<circle cx="1152.63" cy="82.7368" r="1.89474" fill="#A1AF86"/>
<circle cx="1152.63" cy="97.8945" r="1.89474" fill="#A1AF86"/>
<circle cx="1152.63" cy="113.052" r="1.89474" fill="#A1AF86"/>
<circle cx="1152.63" cy="128.21" r="1.89474" fill="#A1AF86"/>
<circle cx="1148.84" cy="75.1577" r="1.89474" fill="#A1AF86"/>
<circle cx="1148.84" cy="90.3156" r="1.89474" fill="#A1AF86"/>
<circle cx="1148.84" cy="105.474" r="1.89474" fill="#A1AF86"/>
<circle cx="1148.84" cy="120.632" r="1.89474" fill="#A1AF86"/>
<circle cx="1148.84" cy="135.789" r="1.89474" fill="#A1AF86"/>
<circle cx="1161.47" cy="67.5788" r="1.89474" fill="#A1AF86"/>
<circle cx="1161.47" cy="82.7368" r="1.89474" fill="#A1AF86"/>
<circle cx="1161.47" cy="97.8945" r="1.89474" fill="#A1AF86"/>
<circle cx="1161.47" cy="113.052" r="1.89474" fill="#A1AF86"/>
<circle cx="1161.47" cy="128.21" r="1.89474" fill="#A1AF86"/>
<circle cx="1157.68" cy="75.1577" r="1.89474" fill="#A1AF86"/>
<circle cx="1157.68" cy="90.3156" r="1.89474" fill="#A1AF86"/>
<circle cx="1157.68" cy="105.474" r="1.89474" fill="#A1AF86"/>
<circle cx="1157.68" cy="120.632" r="1.89474" fill="#A1AF86"/>
<circle cx="1157.68" cy="135.789" r="1.89474" fill="#A1AF86"/>
<circle cx="1170.32" cy="67.5788" r="1.89474" fill="#A1AF86"/>
<circle cx="1170.32" cy="82.7368" r="1.89474" fill="#A1AF86"/>
<circle cx="1170.32" cy="97.8945" r="1.89474" fill="#A1AF86"/>
<circle cx="1170.32" cy="113.052" r="1.89474" fill="#A1AF86"/>
<circle cx="1170.32" cy="128.21" r="1.89474" fill="#A1AF86"/>
<circle cx="1166.53" cy="75.1577" r="1.89474" fill="#A1AF86"/>
<circle cx="1166.53" cy="90.3156" r="1.89474" fill="#A1AF86"/>
<circle cx="1166.53" cy="105.474" r="1.89474" fill="#A1AF86"/>
<circle cx="1166.53" cy="120.632" r="1.89474" fill="#A1AF86"/>
<circle cx="1166.53" cy="135.789" r="1.89474" fill="#A1AF86"/>
<circle cx="1179.16" cy="67.5788" r="1.89474" fill="#A1AF86"/>
<circle cx="1179.16" cy="82.7368" r="1.89474" fill="#A1AF86"/>
<circle cx="1179.16" cy="97.8945" r="1.89474" fill="#A1AF86"/>
<circle cx="1179.16" cy="113.052" r="1.89474" fill="#A1AF86"/>
<circle cx="1179.16" cy="128.21" r="1.89474" fill="#A1AF86"/>
<circle cx="1175.37" cy="75.1577" r="1.89474" fill="#A1AF86"/>
<circle cx="1175.37" cy="90.3156" r="1.89474" fill="#A1AF86"/>
<circle cx="1175.37" cy="105.474" r="1.89474" fill="#A1AF86"/>
<circle cx="1175.37" cy="120.632" r="1.89474" fill="#A1AF86"/>
<circle cx="1175.37" cy="135.789" r="1.89474" fill="#A1AF86"/>
<circle cx="1188" cy="67.5788" r="1.89474" fill="#A1AF86"/>
<circle cx="1188" cy="82.7368" r="1.89474" fill="#A1AF86"/>
<circle cx="1188" cy="97.8945" r="1.89474" fill="#A1AF86"/>
<circle cx="1188" cy="113.052" r="1.89474" fill="#A1AF86"/>
<circle cx="1188" cy="128.21" r="1.89474" fill="#A1AF86"/>
<circle cx="1184.21" cy="75.1577" r="1.89474" fill="#A1AF86"/>
<circle cx="1184.21" cy="90.3156" r="1.89474" fill="#A1AF86"/>
<circle cx="1184.21" cy="105.474" r="1.89474" fill="#A1AF86"/>
<circle cx="1184.21" cy="120.632" r="1.89474" fill="#A1AF86"/>
<circle cx="1184.21" cy="135.789" r="1.89474" fill="#A1AF86"/>
<circle cx="1196.84" cy="67.5788" r="1.89474" fill="#A1AF86"/>
<circle cx="1196.84" cy="82.7368" r="1.89474" fill="#A1AF86"/>
<circle cx="1196.84" cy="97.8945" r="1.89474" fill="#A1AF86"/>
<circle cx="1196.84" cy="113.052" r="1.89474" fill="#A1AF86"/>
<circle cx="1196.84" cy="128.21" r="1.89474" fill="#A1AF86"/>
<circle cx="1193.05" cy="75.1577" r="1.89474" fill="#A1AF86"/>
<circle cx="1193.05" cy="90.3156" r="1.89474" fill="#A1AF86"/>
<circle cx="1193.05" cy="105.474" r="1.89474" fill="#A1AF86"/>
<circle cx="1193.05" cy="120.632" r="1.89474" fill="#A1AF86"/>
<circle cx="1193.05" cy="135.789" r="1.89474" fill="#A1AF86"/>
<circle cx="1205.68" cy="67.5788" r="1.89474" fill="#A1AF86"/>
<circle cx="1205.68" cy="82.7368" r="1.89474" fill="#A1AF86"/>
<circle cx="1205.68" cy="97.8945" r="1.89474" fill="#A1AF86"/>
<circle cx="1205.68" cy="113.052" r="1.89474" fill="#A1AF86"/>
<circle cx="1205.68" cy="128.21" r="1.89474" fill="#A1AF86"/>
<circle cx="1201.89" cy="75.1577" r="1.89474" fill="#A1AF86"/>
<circle cx="1201.89" cy="90.3156" r="1.89474" fill="#A1AF86"/>
<circle cx="1201.89" cy="105.474" r="1.89474" fill="#A1AF86"/>
<circle cx="1201.89" cy="120.632" r="1.89474" fill="#A1AF86"/>
<circle cx="1201.89" cy="135.789" r="1.89474" fill="#A1AF86"/>
<circle cx="1214.53" cy="67.5788" r="1.89474" fill="#A1AF86"/>
<circle cx="1214.53" cy="82.7368" r="1.89474" fill="#A1AF86"/>
<circle cx="1214.53" cy="97.8945" r="1.89474" fill="#A1AF86"/>
<circle cx="1214.53" cy="113.052" r="1.89474" fill="#A1AF86"/>
<circle cx="1214.53" cy="128.21" r="1.89474" fill="#A1AF86"/>
<circle cx="1210.74" cy="75.1577" r="1.89474" fill="#A1AF86"/>
<circle cx="1210.74" cy="90.3156" r="1.89474" fill="#A1AF86"/>
<circle cx="1210.74" cy="105.474" r="1.89474" fill="#A1AF86"/>
<circle cx="1210.74" cy="120.632" r="1.89474" fill="#A1AF86"/>
<circle cx="1210.74" cy="135.789" r="1.89474" fill="#A1AF86"/>
<circle cx="1223.37" cy="67.5788" r="1.89474" fill="#A1AF86"/>
<circle cx="1223.37" cy="82.7368" r="1.89474" fill="#A1AF86"/>
<circle cx="1223.37" cy="97.8945" r="1.89474" fill="#A1AF86"/>
<circle cx="1223.37" cy="113.052" r="1.89474" fill="#A1AF86"/>
<circle cx="1223.37" cy="128.21" r="1.89474" fill="#A1AF86"/>
<circle cx="1219.58" cy="75.1577" r="1.89474" fill="#A1AF86"/>
<circle cx="1219.58" cy="90.3156" r="1.89474" fill="#A1AF86"/>
<circle cx="1219.58" cy="105.474" r="1.89474" fill="#A1AF86"/>
<circle cx="1219.58" cy="120.632" r="1.89474" fill="#A1AF86"/>
<circle cx="1219.58" cy="135.789" r="1.89474" fill="#A1AF86"/>
<circle cx="1232.21" cy="67.5788" r="1.89474" fill="#A1AF86"/>
<circle cx="1232.21" cy="82.7368" r="1.89474" fill="#A1AF86"/>
<circle cx="1232.21" cy="97.8945" r="1.89474" fill="#A1AF86"/>
<circle cx="1232.21" cy="113.052" r="1.89474" fill="#A1AF86"/>
<circle cx="1232.21" cy="128.21" r="1.89474" fill="#A1AF86"/>
<circle cx="1228.42" cy="75.1577" r="1.89474" fill="#A1AF86"/>
<circle cx="1228.42" cy="90.3156" r="1.89474" fill="#A1AF86"/>
<circle cx="1228.42" cy="105.474" r="1.89474" fill="#A1AF86"/>
<circle cx="1228.42" cy="120.632" r="1.89474" fill="#A1AF86"/>
<circle cx="1228.42" cy="135.789" r="1.89474" fill="#A1AF86"/>
</g>
</g>
<!-- TODO: middle teal wave (mask5/mask6 + #41847F circles) — data truncated during transfer. Paste full SVG in and regenerate. -->
</g>
</svg>
